<svg class="icon" viewBox="0 0 1024 1024" version="1.1"
    xmlns="http://www.w3.org/2000/svg" width="256" height="256">
    <path fill="#A0153E" d="M341.333333 85.333333h384.128L938.666667 300.629333V853.333333a85.333333 85.333333 0 0 1-85.333334 85.333334H341.333333a85.333333 85.333333 0 0 1-85.333333-85.333334V170.666667a85.333333 85.333333 0 0 1 85.333333-85.333334z"></path>
    <path fill="#FF204E" d="M725.333333 85.333333v189.696c0 13.056 10.709333 23.637333 23.893334 23.637334H938.666667l-213.333334-213.333334z"></path>
    <path fill="#00224D" d="M42.666667 341.333333m42.666666 0l768 0q42.666667 0 42.666667 42.666667l0 384q0 42.666667-42.666667 42.666667l-768 0q-42.666667 0-42.666666-42.666667l0-384q0-42.666667 42.666666-42.666667Z"></path>
    <text x="150" y="650" fill="#ffffff" font-size="220">{{icon_text}}</text>
</svg>